{"title":"Minions.2015.NEW.HC.HDRip.x264-MenaceIISociety","uid":12300030,"size":956683850,"categoryP":"video","categoryS":"movies","magnet":"?xt=urn:btih:a3f2703d1da90384570135c1fac0020d092b0b2d&amp;dn=Minions.2015.NEW.HC.HDRip.x264-MenaceIISociety&amp;tr=udp%3A%2F%2Ftracker.openbittorrent.com%3A80&amp;tr=udp%3A%2F%2Fopen.demonii.com%3A1337&amp;tr=udp%3A%2F%2Ftracker.coppersurfer.tk%3A6969&amp;tr=udp%3A%2F%2Fexodus.desync.com%3A6969","seeders":0,"leechers":0,"uploader":"TvTeam","files":4,"time":1440685408,"description":"------------------------------------------------------------------------\n\n &lt;a href=&quot; https://www.torrenting.com&quot; rel=&quot;nofollow&quot; target=&quot;_NEW&quot;&gt; https://www.torrenting.com&lt;/a&gt;\n\nSign up is OPEN - for time being. Come and have fun\n\n.......................................................................................................................[center][img]http://s10.postimg.org/yl3klv93d/folder.png[/img]\n\nMinions.2015.NEW.HC.HDRip.x264-MenaceIISociety &lt;a href=&quot;\nhttp://www.imdb.com/title/tt2293640/&quot; rel=&quot;nofollow&quot; target=&quot;_NEW&quot;&gt;\nhttp://www.imdb.com/title/tt2293640/&lt;/a&gt;\n\nSource: NEW.SOURCE.1080p.KORSUB.HDTV.x264.AAC-ShowS [THANKS]\n\nNOTE: adjusted some sat, boosted the color, levels, lowered gamma_y, enjoy. [url]http://screenshotcomparison.com/comparison/140141/picture:0[/url]\n\nGeneral\nComplete name                            : Minions.2015.NEW.HC.HDRip.x264-MenaceIISociety.mp4\nFormat                                   : MPEG-4\nFormat profile                           : Base Media\nCodec ID                                 : isom\nFile size                                : 895 MiB\nDuration                                 : 1h 26mn\nOverall bit rate mode                    : Variable\nOverall bit rate                         : 1 450 Kbps\nEncoded date                             : UTC 2015-08-27 11:22:29\nTagged date                              : UTC 2015-08-27 11:22:29\n\nVideo\nID                                       : 1\nFormat                                   : AVC\nFormat/Info                              : Advanced Video Codec\nFormat profile                           : &lt;a class=&quot;__cf_email__&quot; href=&quot;/cdn-cgi/l/email-protection&quot; data-cfemail=&quot;6b23020c032b275f455a&quot;&gt;[email&amp;#160;protected]&lt;/a&gt;&lt;script data-cfhash='f9e31' type=&quot;text/javascript&quot;&gt;\n/* &lt;![CDATA[ */!function(){try{var t=&quot;currentScript&quot;in document?document.currentScript:function(){for(var t=document.getElementsByTagName(&quot;script&quot;),e=t.length;e--;)if(t[e].getAttribute(&quot;data-cfhash&quot;))return t[e]}();if(t&amp;&amp;t.previousSibling){var e,r,n,i,c=t.previousSibling,a=c.getAttribute(&quot;data-cfemail&quot;);if(a){for(e=&quot;&quot;,r=parseInt(a.substr(0,2),16),n=2;a.length-n;n+=2)i=parseInt(a.substr(n,2),16)^r,e+=String.fromCharCode(i);e=document.createTextNode(e),c.parentNode.replaceChild(e,c)}t.parentNode.removeChild(t);}}catch(u){}}()/* ]]&gt; */&lt;/script&gt;\nFormat settings, CABAC                   : Yes\nFormat settings, ReFrames                : 3 frames\nCodec ID                                 : avc1\nCodec ID/Info                            : Advanced Video Coding\nDuration                                 : 1h 26mn\nBit rate mode                            : Variable\nBit rate                                 : 1 317 Kbps\nMaximum bit rate                         : 40.0 Mbps\nWidth                                    : 720 pixels\nHeight                                   : 384 pixels\nDisplay aspect ratio                     : 1.85:1\nFrame rate mode                          : Constant\nFrame rate                               : 23.976 fps\nColor space                              : YUV\nChroma subsampling                       : 4:2:0\nBit depth                                : 8 bits\nScan type                                : Progressive\nBits/(Pixel*Frame)                       : 0.199\nStream size                              : 813 MiB (91%)\nWriting library                          : x264 core 148 r2579 73ae2d1\n\nAudio\nID                                       : 2\nFormat                                   : AAC\nFormat/Info                              : Advanced Audio Codec\nFormat profile                           : LC\nCodec ID                                 : 40\nDuration                                 : 1h 26mn\nBit rate mode                            : Variable\nBit rate                                 : 129 Kbps\nMaximum bit rate                         : 161 Kbps\nChannel(s)                               : 2 channels\nChannel positions                        : Front: L R\nSampling rate                            : 48.0 KHz\nCompression mode                         : Lossy\nStream size                              : 79.6 MiB (9%)\nLanguage                                 : English\nEncoded date                             : UTC 2015-08-27 11:15:30\nTagged date                              : UTC 2015-08-27 11:23:18\n\n[img]http://i.imgur.com/VziS9K9.jpg[/img]\n[img]http://i.imgur.com/86rPXY4.jpg[/img]\n[img]http://i.imgur.com/YHgjDOJ.jpg[/img]\n[img]http://i.imgur.com/qfQg56B.jpg[/img]\n[img]http://i.imgur.com/wj4J1kA.jpg[/img]\n[img]http://i.imgur.com/MEGZ6Lc.jpg[/img]\n[img]http://i.imgur.com/2NXizXG.jpg[/img] \n \n[img]http://s17.postimg.org/r1iiyw8yn/Untitled_1.png[/img][/center]","torrent":{"xt":"urn:btih:a3f2703d1da90384570135c1fac0020d092b0b2d","amp;dn":"Minions.2015.NEW.HC.HDRip.x264-MenaceIISociety","amp;tr":["udp%3A%2F%2Ftracker.openbittorrent.com%3A80","udp%3A%2F%2Fopen.demonii.com%3A1337","udp%3A%2F%2Ftracker.coppersurfer.tk%3A6969","udp%3A%2F%2Fexodus.desync.com%3A6969"],"infoHash":"a3f2703d1da90384570135c1fac0020d092b0b2d","infoHashBuffer":{"type":"Buffer","data":[163,242,112,61,29,169,3,132,87,1,53,193,250,192,2,13,9,43,11,45]},"announce":[],"urlList":[]}}